<?xml version="1.0" encoding="UTF-8" standalone="no"?>
<!DOCTYPE svg PUBLIC "-//W3C//DTD SVG 1.1//EN" "http://www.w3.org/Graphics/SVG/1.1/DTD/svg11.dtd">
<svg width="100%" height="100%" viewBox="0 0 304 42" version="1.1" xmlns="http://www.w3.org/2000/svg" xmlns:xlink="http://www.w3.org/1999/xlink" xml:space="preserve" xmlns:serif="http://www.serif.com/" style="fill-rule:evenodd;clip-rule:evenodd;stroke-linejoin:round;stroke-miterlimit:2;">
    <g transform="matrix(1,0,0,1,0,-58.9508)">
        <g transform="matrix(48,0,0,48,0,97.0686)">
            <path d="M0.159,-0.425C0.194,-0.468 0.243,-0.49 0.306,-0.49C0.369,-0.49 0.424,-0.467 0.469,-0.423C0.514,-0.377 0.536,-0.319 0.536,-0.247C0.536,-0.174 0.514,-0.113 0.47,-0.064C0.425,-0.014 0.371,0.01 0.307,0.01C0.241,0.01 0.19,-0.015 0.153,-0.066L0.154,-0.015C0.154,-0.004 0.148,0.001 0.137,0.001L0.05,-0C0.04,-0 0.035,-0.004 0.035,-0.011L0.035,-0.014C0.035,-0.019 0.041,-0.026 0.054,-0.036C0.066,-0.046 0.072,-0.058 0.072,-0.071L0.072,-0.631C0.072,-0.643 0.069,-0.653 0.062,-0.66C0.055,-0.667 0.049,-0.673 0.042,-0.678C0.035,-0.682 0.032,-0.686 0.032,-0.691L0.032,-0.694C0.032,-0.7 0.038,-0.705 0.049,-0.71L0.128,-0.748C0.137,-0.753 0.145,-0.754 0.151,-0.751C0.156,-0.748 0.159,-0.743 0.159,-0.734L0.159,-0.425ZM0.294,-0.022C0.341,-0.022 0.378,-0.04 0.406,-0.077C0.433,-0.113 0.447,-0.162 0.447,-0.223C0.447,-0.292 0.432,-0.349 0.402,-0.393C0.371,-0.436 0.332,-0.458 0.283,-0.458C0.25,-0.458 0.221,-0.446 0.196,-0.421C0.171,-0.396 0.159,-0.366 0.159,-0.332L0.159,-0.19L0.158,-0.176L0.159,-0.176C0.159,-0.136 0.173,-0.1 0.201,-0.069C0.228,-0.038 0.259,-0.022 0.294,-0.022Z" style="fill-rule:nonzero;"/>
        </g>
        <g transform="matrix(48,0,0,48,27.312,97.0686)">
            <path d="M0.12,-0.575C0.099,-0.575 0.083,-0.581 0.071,-0.592C0.059,-0.603 0.053,-0.618 0.053,-0.637C0.053,-0.656 0.059,-0.671 0.072,-0.683C0.084,-0.694 0.1,-0.7 0.12,-0.7C0.139,-0.7 0.155,-0.694 0.167,-0.683C0.179,-0.671 0.185,-0.656 0.185,-0.637C0.185,-0.618 0.179,-0.603 0.167,-0.592C0.155,-0.581 0.139,-0.575 0.12,-0.575ZM0.062,-0C0.049,-0 0.043,-0.004 0.043,-0.013L0.043,-0.017C0.043,-0.022 0.046,-0.026 0.052,-0.031C0.058,-0.035 0.064,-0.04 0.07,-0.047C0.076,-0.053 0.079,-0.061 0.079,-0.071L0.079,-0.369C0.079,-0.384 0.073,-0.398 0.061,-0.409C0.049,-0.42 0.043,-0.428 0.043,-0.431L0.043,-0.433C0.043,-0.438 0.048,-0.443 0.058,-0.448L0.135,-0.486C0.146,-0.49 0.154,-0.491 0.159,-0.488C0.164,-0.485 0.166,-0.48 0.166,-0.472L0.166,-0.071C0.166,-0.063 0.168,-0.056 0.172,-0.051C0.176,-0.045 0.181,-0.041 0.186,-0.038C0.191,-0.035 0.196,-0.032 0.2,-0.029C0.204,-0.025 0.206,-0.021 0.206,-0.017L0.206,-0.013C0.206,-0.004 0.199,-0 0.185,-0L0.062,-0Z" style="fill-rule:nonzero;"/>
        </g>
        <g transform="matrix(48,0,0,48,38.976,97.0686)">
            <path d="M0.448,-0.08C0.449,-0.066 0.453,-0.055 0.459,-0.048C0.465,-0.04 0.471,-0.035 0.478,-0.034C0.485,-0.032 0.491,-0.03 0.496,-0.027C0.501,-0.024 0.504,-0.02 0.504,-0.015C0.504,-0.001 0.483,0.006 0.44,0.006C0.416,0.006 0.398,0.002 0.387,-0.008C0.376,-0.017 0.369,-0.034 0.367,-0.06C0.342,-0.013 0.294,0.01 0.223,0.01C0.167,0.01 0.122,-0.003 0.088,-0.03C0.054,-0.057 0.037,-0.094 0.037,-0.141C0.036,-0.188 0.053,-0.224 0.088,-0.25C0.122,-0.276 0.166,-0.289 0.22,-0.289C0.273,-0.289 0.314,-0.276 0.343,-0.249L0.341,-0.276C0.335,-0.337 0.323,-0.383 0.304,-0.413C0.285,-0.443 0.257,-0.458 0.218,-0.458C0.195,-0.458 0.175,-0.452 0.16,-0.44C0.145,-0.428 0.134,-0.415 0.129,-0.401C0.123,-0.387 0.116,-0.374 0.108,-0.362C0.1,-0.35 0.091,-0.344 0.08,-0.344C0.068,-0.344 0.058,-0.347 0.052,-0.354C0.045,-0.361 0.041,-0.37 0.041,-0.381C0.041,-0.409 0.057,-0.434 0.091,-0.457C0.124,-0.479 0.166,-0.49 0.218,-0.49C0.279,-0.49 0.327,-0.471 0.364,-0.435C0.4,-0.397 0.421,-0.346 0.428,-0.279L0.448,-0.08ZM0.245,-0.022C0.278,-0.022 0.304,-0.033 0.325,-0.054C0.346,-0.075 0.355,-0.101 0.354,-0.132L0.35,-0.177C0.345,-0.201 0.332,-0.22 0.313,-0.235C0.293,-0.25 0.269,-0.257 0.24,-0.257C0.206,-0.257 0.178,-0.247 0.157,-0.228C0.136,-0.209 0.125,-0.184 0.125,-0.153C0.125,-0.116 0.136,-0.085 0.159,-0.06C0.181,-0.035 0.21,-0.022 0.245,-0.022Z" style="fill-rule:nonzero;"/>
        </g>
        <g transform="matrix(48,0,0,48,63.264,97.0686)">
            <path d="M0.514,-0.072C0.515,-0.061 0.518,-0.053 0.524,-0.046C0.53,-0.039 0.536,-0.034 0.542,-0.03C0.547,-0.025 0.55,-0.021 0.55,-0.016L0.55,-0.012C0.55,-0.003 0.543,0.001 0.529,0.001L0.41,0.001C0.396,0.001 0.389,-0.003 0.389,-0.012L0.389,-0.016C0.389,-0.021 0.395,-0.028 0.408,-0.037C0.42,-0.046 0.426,-0.058 0.425,-0.071L0.415,-0.271C0.412,-0.33 0.4,-0.375 0.379,-0.406C0.357,-0.436 0.328,-0.451 0.292,-0.451C0.255,-0.451 0.225,-0.438 0.202,-0.412C0.179,-0.386 0.167,-0.353 0.167,-0.313L0.167,-0.07C0.167,-0.062 0.169,-0.055 0.174,-0.05C0.178,-0.044 0.182,-0.04 0.187,-0.037C0.192,-0.034 0.196,-0.031 0.201,-0.028C0.205,-0.024 0.207,-0.02 0.207,-0.016L0.207,-0.012C0.207,-0.003 0.2,0.001 0.186,0.001L0.061,0.001C0.048,0.001 0.041,-0.003 0.041,-0.012L0.041,-0.016C0.041,-0.021 0.048,-0.028 0.061,-0.037C0.074,-0.046 0.08,-0.057 0.08,-0.07L0.08,-0.373C0.08,-0.386 0.077,-0.396 0.07,-0.403C0.063,-0.41 0.056,-0.415 0.049,-0.419C0.042,-0.423 0.038,-0.427 0.038,-0.432L0.038,-0.435C0.038,-0.441 0.043,-0.446 0.054,-0.45L0.129,-0.486C0.138,-0.491 0.145,-0.491 0.15,-0.488C0.155,-0.485 0.157,-0.479 0.157,-0.471L0.157,-0.398C0.172,-0.426 0.193,-0.448 0.221,-0.465C0.248,-0.482 0.279,-0.49 0.313,-0.49C0.365,-0.49 0.409,-0.472 0.444,-0.435C0.478,-0.398 0.498,-0.343 0.503,-0.269L0.514,-0.072Z" style="fill-rule:nonzero;"/>
        </g>
        <g transform="matrix(48,0,0,48,90.816,97.0686)">
            <path d="M0.279,0.01C0.209,0.01 0.15,-0.014 0.102,-0.063C0.053,-0.111 0.029,-0.171 0.029,-0.243C0.029,-0.316 0.053,-0.376 0.1,-0.421C0.147,-0.466 0.205,-0.489 0.275,-0.49C0.327,-0.491 0.373,-0.478 0.412,-0.451C0.451,-0.424 0.47,-0.395 0.47,-0.366C0.47,-0.342 0.457,-0.33 0.43,-0.331C0.417,-0.332 0.406,-0.339 0.395,-0.352C0.384,-0.365 0.374,-0.379 0.366,-0.395C0.357,-0.41 0.344,-0.425 0.326,-0.438C0.307,-0.451 0.285,-0.458 0.259,-0.458C0.218,-0.458 0.184,-0.441 0.157,-0.408C0.13,-0.374 0.117,-0.332 0.117,-0.282C0.117,-0.213 0.135,-0.157 0.17,-0.116C0.205,-0.074 0.251,-0.053 0.307,-0.053C0.34,-0.053 0.368,-0.062 0.392,-0.08C0.415,-0.097 0.433,-0.12 0.446,-0.147C0.45,-0.155 0.456,-0.158 0.465,-0.156C0.474,-0.154 0.477,-0.148 0.475,-0.139C0.467,-0.098 0.446,-0.063 0.412,-0.034C0.377,-0.005 0.333,0.01 0.279,0.01Z" style="fill-rule:nonzero;"/>
        </g>
        <g transform="matrix(48,0,0,48,114.912,97.0686)">
            <path d="M0.448,-0.08C0.449,-0.066 0.453,-0.055 0.459,-0.048C0.465,-0.04 0.471,-0.035 0.478,-0.034C0.485,-0.032 0.491,-0.03 0.496,-0.027C0.501,-0.024 0.504,-0.02 0.504,-0.015C0.504,-0.001 0.483,0.006 0.44,0.006C0.416,0.006 0.398,0.002 0.387,-0.008C0.376,-0.017 0.369,-0.034 0.367,-0.06C0.342,-0.013 0.294,0.01 0.223,0.01C0.167,0.01 0.122,-0.003 0.088,-0.03C0.054,-0.057 0.037,-0.094 0.037,-0.141C0.036,-0.188 0.053,-0.224 0.088,-0.25C0.122,-0.276 0.166,-0.289 0.22,-0.289C0.273,-0.289 0.314,-0.276 0.343,-0.249L0.341,-0.276C0.335,-0.337 0.323,-0.383 0.304,-0.413C0.285,-0.443 0.257,-0.458 0.218,-0.458C0.195,-0.458 0.175,-0.452 0.16,-0.44C0.145,-0.428 0.134,-0.415 0.129,-0.401C0.123,-0.387 0.116,-0.374 0.108,-0.362C0.1,-0.35 0.091,-0.344 0.08,-0.344C0.068,-0.344 0.058,-0.347 0.052,-0.354C0.045,-0.361 0.041,-0.37 0.041,-0.381C0.041,-0.409 0.057,-0.434 0.091,-0.457C0.124,-0.479 0.166,-0.49 0.218,-0.49C0.279,-0.49 0.327,-0.471 0.364,-0.435C0.4,-0.397 0.421,-0.346 0.428,-0.279L0.448,-0.08ZM0.245,-0.022C0.278,-0.022 0.304,-0.033 0.325,-0.054C0.346,-0.075 0.355,-0.101 0.354,-0.132L0.35,-0.177C0.345,-0.201 0.332,-0.22 0.313,-0.235C0.293,-0.25 0.269,-0.257 0.24,-0.257C0.206,-0.257 0.178,-0.247 0.157,-0.228C0.136,-0.209 0.125,-0.184 0.125,-0.153C0.125,-0.116 0.136,-0.085 0.159,-0.06C0.181,-0.035 0.21,-0.022 0.245,-0.022Z" style="fill-rule:nonzero;"/>
        </g>
        <g transform="matrix(48,0,0,48,149.52,97.0686)">
            <path d="M0.691,-0.051C0.702,-0.051 0.708,-0.047 0.708,-0.038L0.708,-0.033C0.708,-0.023 0.7,-0.013 0.686,-0.004C0.671,0.005 0.653,0.01 0.633,0.01C0.592,0.01 0.552,-0.011 0.513,-0.054L0.499,-0.07C0.437,-0.017 0.363,0.01 0.277,0.01C0.201,0.01 0.142,-0.006 0.1,-0.039C0.057,-0.071 0.036,-0.117 0.036,-0.177C0.036,-0.22 0.052,-0.257 0.083,-0.29C0.114,-0.323 0.157,-0.353 0.212,-0.382C0.181,-0.417 0.158,-0.447 0.143,-0.473C0.128,-0.498 0.12,-0.527 0.12,-0.559C0.12,-0.607 0.137,-0.646 0.171,-0.675C0.204,-0.704 0.249,-0.719 0.304,-0.719C0.354,-0.719 0.395,-0.705 0.426,-0.679C0.457,-0.652 0.473,-0.616 0.473,-0.573C0.473,-0.533 0.459,-0.498 0.431,-0.468C0.402,-0.437 0.367,-0.412 0.324,-0.391L0.517,-0.181C0.552,-0.25 0.569,-0.331 0.569,-0.423C0.569,-0.432 0.575,-0.439 0.586,-0.444C0.596,-0.448 0.608,-0.448 0.619,-0.444C0.63,-0.44 0.636,-0.433 0.636,-0.422C0.636,-0.309 0.61,-0.214 0.558,-0.137L0.588,-0.104C0.621,-0.069 0.647,-0.051 0.666,-0.051L0.691,-0.051ZM0.295,-0.686C0.27,-0.686 0.249,-0.676 0.234,-0.657C0.218,-0.637 0.21,-0.611 0.21,-0.58C0.21,-0.552 0.217,-0.527 0.23,-0.505C0.243,-0.482 0.264,-0.456 0.292,-0.425C0.355,-0.462 0.387,-0.511 0.387,-0.574C0.387,-0.607 0.379,-0.634 0.362,-0.655C0.345,-0.676 0.322,-0.686 0.295,-0.686ZM0.288,-0.021C0.358,-0.021 0.418,-0.049 0.467,-0.105L0.242,-0.35C0.165,-0.303 0.126,-0.242 0.126,-0.169C0.126,-0.126 0.14,-0.09 0.17,-0.063C0.199,-0.035 0.238,-0.021 0.288,-0.021Z" style="fill-rule:nonzero;"/>
        </g>
        <g transform="matrix(48,0,0,48,193.152,97.0686)">
            <path d="M0.159,-0.425C0.194,-0.468 0.243,-0.49 0.306,-0.49C0.369,-0.49 0.424,-0.467 0.469,-0.423C0.514,-0.377 0.536,-0.319 0.536,-0.247C0.536,-0.174 0.514,-0.113 0.47,-0.064C0.425,-0.014 0.371,0.01 0.307,0.01C0.241,0.01 0.19,-0.015 0.153,-0.066L0.154,-0.015C0.154,-0.004 0.148,0.001 0.137,0.001L0.05,-0C0.04,-0 0.035,-0.004 0.035,-0.011L0.035,-0.014C0.035,-0.019 0.041,-0.026 0.054,-0.036C0.066,-0.046 0.072,-0.058 0.072,-0.071L0.072,-0.631C0.072,-0.643 0.069,-0.653 0.062,-0.66C0.055,-0.667 0.049,-0.673 0.042,-0.678C0.035,-0.682 0.032,-0.686 0.032,-0.691L0.032,-0.694C0.032,-0.7 0.038,-0.705 0.049,-0.71L0.128,-0.748C0.137,-0.753 0.145,-0.754 0.151,-0.751C0.156,-0.748 0.159,-0.743 0.159,-0.734L0.159,-0.425ZM0.294,-0.022C0.341,-0.022 0.378,-0.04 0.406,-0.077C0.433,-0.113 0.447,-0.162 0.447,-0.223C0.447,-0.292 0.432,-0.349 0.402,-0.393C0.371,-0.436 0.332,-0.458 0.283,-0.458C0.25,-0.458 0.221,-0.446 0.196,-0.421C0.171,-0.396 0.159,-0.366 0.159,-0.332L0.159,-0.19L0.158,-0.176L0.159,-0.176C0.159,-0.136 0.173,-0.1 0.201,-0.069C0.228,-0.038 0.259,-0.022 0.294,-0.022Z" style="fill-rule:nonzero;"/>
        </g>
        <g transform="matrix(48,0,0,48,220.464,97.0686)">
            <path d="M0.286,-0.49C0.315,-0.49 0.337,-0.483 0.354,-0.468C0.37,-0.453 0.378,-0.435 0.378,-0.413C0.378,-0.382 0.365,-0.366 0.338,-0.366C0.327,-0.366 0.318,-0.37 0.311,-0.377C0.304,-0.384 0.3,-0.392 0.298,-0.401C0.295,-0.41 0.29,-0.418 0.282,-0.425C0.274,-0.432 0.263,-0.436 0.249,-0.436C0.222,-0.436 0.202,-0.423 0.187,-0.397C0.171,-0.37 0.164,-0.337 0.164,-0.298L0.164,-0.07C0.164,-0.057 0.171,-0.046 0.185,-0.037C0.199,-0.027 0.206,-0.021 0.206,-0.016L0.206,-0.012C0.206,-0.004 0.199,-0 0.186,-0L0.062,-0C0.049,-0 0.042,-0.004 0.042,-0.012L0.042,-0.016C0.042,-0.021 0.048,-0.027 0.061,-0.037C0.073,-0.046 0.079,-0.057 0.079,-0.07L0.079,-0.374C0.079,-0.388 0.072,-0.4 0.059,-0.41C0.046,-0.42 0.039,-0.427 0.039,-0.432L0.039,-0.434C0.039,-0.441 0.044,-0.447 0.054,-0.452L0.13,-0.486C0.147,-0.494 0.156,-0.489 0.156,-0.472L0.156,-0.392C0.179,-0.457 0.222,-0.49 0.286,-0.49Z" style="fill-rule:nonzero;"/>
        </g>
        <g transform="matrix(48,0,0,48,238.752,97.0686)">
            <path d="M0.12,-0.575C0.099,-0.575 0.083,-0.581 0.071,-0.592C0.059,-0.603 0.053,-0.618 0.053,-0.637C0.053,-0.656 0.059,-0.671 0.072,-0.683C0.084,-0.694 0.1,-0.7 0.12,-0.7C0.139,-0.7 0.155,-0.694 0.167,-0.683C0.179,-0.671 0.185,-0.656 0.185,-0.637C0.185,-0.618 0.179,-0.603 0.167,-0.592C0.155,-0.581 0.139,-0.575 0.12,-0.575ZM0.062,-0C0.049,-0 0.043,-0.004 0.043,-0.013L0.043,-0.017C0.043,-0.022 0.046,-0.026 0.052,-0.031C0.058,-0.035 0.064,-0.04 0.07,-0.047C0.076,-0.053 0.079,-0.061 0.079,-0.071L0.079,-0.369C0.079,-0.384 0.073,-0.398 0.061,-0.409C0.049,-0.42 0.043,-0.428 0.043,-0.431L0.043,-0.433C0.043,-0.438 0.048,-0.443 0.058,-0.448L0.135,-0.486C0.146,-0.49 0.154,-0.491 0.159,-0.488C0.164,-0.485 0.166,-0.48 0.166,-0.472L0.166,-0.071C0.166,-0.063 0.168,-0.056 0.172,-0.051C0.176,-0.045 0.181,-0.041 0.186,-0.038C0.191,-0.035 0.196,-0.032 0.2,-0.029C0.204,-0.025 0.206,-0.021 0.206,-0.017L0.206,-0.013C0.206,-0.004 0.199,-0 0.185,-0L0.062,-0Z" style="fill-rule:nonzero;"/>
        </g>
        <g transform="matrix(48,0,0,48,250.416,97.0686)">
            <path d="M0.448,-0.08C0.449,-0.066 0.453,-0.055 0.459,-0.048C0.465,-0.04 0.471,-0.035 0.478,-0.034C0.485,-0.032 0.491,-0.03 0.496,-0.027C0.501,-0.024 0.504,-0.02 0.504,-0.015C0.504,-0.001 0.483,0.006 0.44,0.006C0.416,0.006 0.398,0.002 0.387,-0.008C0.376,-0.017 0.369,-0.034 0.367,-0.06C0.342,-0.013 0.294,0.01 0.223,0.01C0.167,0.01 0.122,-0.003 0.088,-0.03C0.054,-0.057 0.037,-0.094 0.037,-0.141C0.036,-0.188 0.053,-0.224 0.088,-0.25C0.122,-0.276 0.166,-0.289 0.22,-0.289C0.273,-0.289 0.314,-0.276 0.343,-0.249L0.341,-0.276C0.335,-0.337 0.323,-0.383 0.304,-0.413C0.285,-0.443 0.257,-0.458 0.218,-0.458C0.195,-0.458 0.175,-0.452 0.16,-0.44C0.145,-0.428 0.134,-0.415 0.129,-0.401C0.123,-0.387 0.116,-0.374 0.108,-0.362C0.1,-0.35 0.091,-0.344 0.08,-0.344C0.068,-0.344 0.058,-0.347 0.052,-0.354C0.045,-0.361 0.041,-0.37 0.041,-0.381C0.041,-0.409 0.057,-0.434 0.091,-0.457C0.124,-0.479 0.166,-0.49 0.218,-0.49C0.279,-0.49 0.327,-0.471 0.364,-0.435C0.4,-0.397 0.421,-0.346 0.428,-0.279L0.448,-0.08ZM0.245,-0.022C0.278,-0.022 0.304,-0.033 0.325,-0.054C0.346,-0.075 0.355,-0.101 0.354,-0.132L0.35,-0.177C0.345,-0.201 0.332,-0.22 0.313,-0.235C0.293,-0.25 0.269,-0.257 0.24,-0.257C0.206,-0.257 0.178,-0.247 0.157,-0.228C0.136,-0.209 0.125,-0.184 0.125,-0.153C0.125,-0.116 0.136,-0.085 0.159,-0.06C0.181,-0.035 0.21,-0.022 0.245,-0.022Z" style="fill-rule:nonzero;"/>
        </g>
        <g transform="matrix(48,0,0,48,274.704,97.0686)">
            <path d="M0.514,-0.072C0.515,-0.061 0.518,-0.053 0.524,-0.046C0.53,-0.039 0.536,-0.034 0.542,-0.03C0.547,-0.025 0.55,-0.021 0.55,-0.016L0.55,-0.012C0.55,-0.003 0.543,0.001 0.529,0.001L0.41,0.001C0.396,0.001 0.389,-0.003 0.389,-0.012L0.389,-0.016C0.389,-0.021 0.395,-0.028 0.408,-0.037C0.42,-0.046 0.426,-0.058 0.425,-0.071L0.415,-0.271C0.412,-0.33 0.4,-0.375 0.379,-0.406C0.357,-0.436 0.328,-0.451 0.292,-0.451C0.255,-0.451 0.225,-0.438 0.202,-0.412C0.179,-0.386 0.167,-0.353 0.167,-0.313L0.167,-0.07C0.167,-0.062 0.169,-0.055 0.174,-0.05C0.178,-0.044 0.182,-0.04 0.187,-0.037C0.192,-0.034 0.196,-0.031 0.201,-0.028C0.205,-0.024 0.207,-0.02 0.207,-0.016L0.207,-0.012C0.207,-0.003 0.2,0.001 0.186,0.001L0.061,0.001C0.048,0.001 0.041,-0.003 0.041,-0.012L0.041,-0.016C0.041,-0.021 0.048,-0.028 0.061,-0.037C0.074,-0.046 0.08,-0.057 0.08,-0.07L0.08,-0.373C0.08,-0.386 0.077,-0.396 0.07,-0.403C0.063,-0.41 0.056,-0.415 0.049,-0.419C0.042,-0.423 0.038,-0.427 0.038,-0.432L0.038,-0.435C0.038,-0.441 0.043,-0.446 0.054,-0.45L0.129,-0.486C0.138,-0.491 0.145,-0.491 0.15,-0.488C0.155,-0.485 0.157,-0.479 0.157,-0.471L0.157,-0.398C0.172,-0.426 0.193,-0.448 0.221,-0.465C0.248,-0.482 0.279,-0.49 0.313,-0.49C0.365,-0.49 0.409,-0.472 0.444,-0.435C0.478,-0.398 0.498,-0.343 0.503,-0.269L0.514,-0.072Z" style="fill-rule:nonzero;"/>
        </g>
    </g>
</svg>
